<svg id="Layer_1" data-name="Layer 1" xmlns="http://www.w3.org/2000/svg" viewBox="0 0 202.45 44.15"><defs><style>.cls-1{fill:#dc1961;}.cls-2{fill:#fff;}</style></defs><title>artmarket</title><path class="cls-1" d="M22.52,49.18a4.72,4.72,0,0,1-1.66-.31A4.18,4.18,0,0,1,19.42,48a1.64,1.64,0,0,1-.59-1.26,4,4,0,0,1,.05-.45L27.56,18A2.42,2.42,0,0,1,29,16.51a6,6,0,0,1,4.75,0A2.42,2.42,0,0,1,35.12,18l8.69,28.3a1.91,1.91,0,0,1,.09.45A1.7,1.7,0,0,1,43.29,48a4.45,4.45,0,0,1-1.46.88,4.86,4.86,0,0,1-1.67.31,2.8,2.8,0,0,1-1.24-.25,1.29,1.29,0,0,1-.69-.92l-1.71-6H26.17L24.5,48a1.3,1.3,0,0,1-.72.92A2.92,2.92,0,0,1,22.52,49.18Zm4.91-11.74h7.83L31.34,23.62Z" transform="translate(-18.83 -15.34)"/><path class="cls-1" d="M65,49.41a2.13,2.13,0,0,1-1.15-.36A2.36,2.36,0,0,1,63,48l-6.4-12.42H52.8v11.7a1.53,1.53,0,0,1-.9,1.42,4.53,4.53,0,0,1-4,0A1.51,1.51,0,0,1,47,47.29V18.13a1.8,1.8,0,0,1,1.88-1.84h8.91a16,16,0,0,1,5.38.85A7.77,7.77,0,0,1,67,20a9.7,9.7,0,0,1,1.44,5.65,11.41,11.41,0,0,1-.77,4.43,7.44,7.44,0,0,1-2.09,2.93,8.94,8.94,0,0,1-3,1.64l5.94,10.94a1.57,1.57,0,0,1,.14.38,1.64,1.64,0,0,1,.05.34,2.46,2.46,0,0,1-.54,1.44A4.14,4.14,0,0,1,66.73,49,3.57,3.57,0,0,1,65,49.41ZM52.8,31h5a5.33,5.33,0,0,0,3.51-1.08,4.55,4.55,0,0,0,1.31-3.69c0-1.8-.44-3.05-1.31-3.76a5.44,5.44,0,0,0-3.51-1h-5Z" transform="translate(-18.83 -15.34)"/><path class="cls-1" d="M81.2,49.18a4.3,4.3,0,0,1-2-.47,1.51,1.51,0,0,1-.9-1.42V21.55H71.66a1.52,1.52,0,0,1-1.35-.81,3.45,3.45,0,0,1-.5-1.84,3.58,3.58,0,0,1,.46-1.78,1.46,1.46,0,0,1,1.39-.83h19a1.46,1.46,0,0,1,1.41.83,3.77,3.77,0,0,1,.43,1.78,3.62,3.62,0,0,1-.47,1.84,1.51,1.51,0,0,1-1.37.81H84.13V47.29a1.52,1.52,0,0,1-.93,1.42A4.36,4.36,0,0,1,81.2,49.18Z" transform="translate(-18.83 -15.34)"/><path class="cls-2" d="M93.84,49.18a3.45,3.45,0,0,1-2.07-.58A1.64,1.64,0,0,1,91,47.29V29.61a1.49,1.49,0,0,1,.81-1.31,3.92,3.92,0,0,1,2.07-.49,3.25,3.25,0,0,1,1.83.49,1.52,1.52,0,0,1,.74,1.31V31a7.84,7.84,0,0,1,2.25-2.37,6.31,6.31,0,0,1,3.74-1.05,5.12,5.12,0,0,1,3.41,1.26A7.54,7.54,0,0,1,108,32a8.17,8.17,0,0,1,3-3.4,7.14,7.14,0,0,1,3.76-1.1,7.65,7.65,0,0,1,3.89,1.05,8,8,0,0,1,3,3.11,10,10,0,0,1,1.15,5V47.29a1.64,1.64,0,0,1-.86,1.31,3.54,3.54,0,0,1-2.06.58,3.49,3.49,0,0,1-2-.58,1.64,1.64,0,0,1-.86-1.31V36.67a4.51,4.51,0,0,0-.51-2.25,3.56,3.56,0,0,0-1.38-1.37,3.51,3.51,0,0,0-1.75-.47,3.2,3.2,0,0,0-1.66.47,3.8,3.8,0,0,0-1.36,1.37,4.33,4.33,0,0,0-.54,2.21V47.34a1.44,1.44,0,0,1-.92,1.41,4.61,4.61,0,0,1-2,.43,4.52,4.52,0,0,1-1.93-.43,1.44,1.44,0,0,1-1-1.41V36.67a4.21,4.21,0,0,0-.52-2.16,3.68,3.68,0,0,0-1.35-1.39,3.4,3.4,0,0,0-1.78-.5,3.47,3.47,0,0,0-1.71.45,3.43,3.43,0,0,0-1.32,1.35,4.41,4.41,0,0,0-.52,2.25V47.29a1.65,1.65,0,0,1-.85,1.31A3.63,3.63,0,0,1,93.84,49.18Z" transform="translate(-18.83 -15.34)"/><path class="cls-2" d="M131.69,49.59a6.17,6.17,0,0,1-4.12-1.47,5.59,5.59,0,0,1-1.73-4.52,5.65,5.65,0,0,1,1.33-4,7.2,7.2,0,0,1,3.69-2,22.8,22.8,0,0,1,5.46-.58h1.85V36.4a5.18,5.18,0,0,0-.38-1.93,3.7,3.7,0,0,0-1.22-1.58,3.83,3.83,0,0,0-2.36-.63,7.82,7.82,0,0,0-2.63.34,5.66,5.66,0,0,0-1.42.7,1.8,1.8,0,0,1-1.08.36,1.6,1.6,0,0,1-1.46-.95,3.91,3.91,0,0,1-.52-1.93,2.06,2.06,0,0,1,1.15-1.69,8.93,8.93,0,0,1,2.81-1.15,13.67,13.67,0,0,1,3.24-.4,10.91,10.91,0,0,1,5.62,1.26A7.74,7.74,0,0,1,143,32a9.65,9.65,0,0,1,1,4.27v11a1.59,1.59,0,0,1-.81,1.35,3.56,3.56,0,0,1-2,.54,3.11,3.11,0,0,1-1.87-.54,1.63,1.63,0,0,1-.74-1.35V46a13.76,13.76,0,0,1-2.86,2.48A7.07,7.07,0,0,1,131.69,49.59ZM134,45.27a3.39,3.39,0,0,0,1.89-.63,5.74,5.74,0,0,0,1.6-1.62,3.74,3.74,0,0,0,.65-2.07V40h-.68a21.38,21.38,0,0,0-2.83.18,4.62,4.62,0,0,0-2.18.79,2.15,2.15,0,0,0-.84,1.87,2.28,2.28,0,0,0,.7,1.84A2.56,2.56,0,0,0,134,45.27Z" transform="translate(-18.83 -15.34)"/><path class="cls-2" d="M151.13,49.18a3.38,3.38,0,0,1-2-.58,1.64,1.64,0,0,1-.81-1.31V29.61a1.49,1.49,0,0,1,.81-1.31,3.84,3.84,0,0,1,2-.49,3.32,3.32,0,0,1,1.87.49,1.52,1.52,0,0,1,.74,1.31v1.84a7.74,7.74,0,0,1,1.33-1.87A7.63,7.63,0,0,1,157,28.12a4.72,4.72,0,0,1,2.29-.58h1.4a1.87,1.87,0,0,1,1.48.74,2.65,2.65,0,0,1,.63,1.78,2.72,2.72,0,0,1-.63,1.82,1.9,1.9,0,0,1-1.48.74h-1.4a4.27,4.27,0,0,0-2.45.83,6.35,6.35,0,0,0-2,2.3,7.51,7.51,0,0,0-.76,3.53v8a1.64,1.64,0,0,1-.86,1.31A3.64,3.64,0,0,1,151.13,49.18Z" transform="translate(-18.83 -15.34)"/><path class="cls-2" d="M168.05,49.18a3.38,3.38,0,0,1-2-.58,1.64,1.64,0,0,1-.81-1.31V17.14a1.48,1.48,0,0,1,.81-1.3,3.84,3.84,0,0,1,2-.5,4.14,4.14,0,0,1,2.11.5,1.48,1.48,0,0,1,.86,1.3V36l8.5-8a1.54,1.54,0,0,1,1.13-.45A2.38,2.38,0,0,1,182,28a3.89,3.89,0,0,1,1.08,1.06,2.31,2.31,0,0,1,.42,1.3,1.43,1.43,0,0,1-.11.56,1.19,1.19,0,0,1-.38.52l-5.31,4.82,6.66,9.45a1.75,1.75,0,0,1,.31.94,2.16,2.16,0,0,1-.54,1.35,4.31,4.31,0,0,1-1.3,1.1,3,3,0,0,1-1.49.43,1.67,1.67,0,0,1-1.44-.76l-6-8.91L171,42.39v4.9a1.64,1.64,0,0,1-.86,1.31A3.64,3.64,0,0,1,168.05,49.18Z" transform="translate(-18.83 -15.34)"/><path class="cls-2" d="M197,49.59a13.29,13.29,0,0,1-5.65-1.15,9.2,9.2,0,0,1-3.84-3.24,8.54,8.54,0,0,1-1.4-4.84V36.54a8,8,0,0,1,1.33-4.48A9.86,9.86,0,0,1,191,28.77a10.16,10.16,0,0,1,5-1.23,9.94,9.94,0,0,1,4.61,1.08,9.29,9.29,0,0,1,3.4,3,7.57,7.57,0,0,1,1.3,4.41,4.64,4.64,0,0,1-.63,2.76,2.63,2.63,0,0,1-1.6,1,10,10,0,0,1-2,.2H192v.68a3.8,3.8,0,0,0,1.46,3.12,5.78,5.78,0,0,0,3.8,1.2,6,6,0,0,0,2.48-.45c.65-.3,1.23-.59,1.71-.86a2.71,2.71,0,0,1,1.35-.4,1.7,1.7,0,0,1,1.17.45,3.14,3.14,0,0,1,.76,1,2.71,2.71,0,0,1,.27,1.06,2.36,2.36,0,0,1-1,1.64A7.8,7.8,0,0,1,201.24,49,13.22,13.22,0,0,1,197,49.59Zm-5.08-13h6.57a1.63,1.63,0,0,0,1-.25,1.2,1.2,0,0,0,.3-1,3.14,3.14,0,0,0-.57-1.85,3.81,3.81,0,0,0-1.44-1.26,4.18,4.18,0,0,0-2-.45,4.37,4.37,0,0,0-1.94.43,3.68,3.68,0,0,0-1.46,1.21,3.11,3.11,0,0,0-.56,1.87Z" transform="translate(-18.83 -15.34)"/><path class="cls-2" d="M217,49.18a9.55,9.55,0,0,1-6.19-1.75c-1.42-1.17-2.14-3-2.14-5.58V20.07a1.49,1.49,0,0,1,.95-1.31,4.1,4.1,0,0,1,1.93-.49,4.21,4.21,0,0,1,2,.49,1.49,1.49,0,0,1,.92,1.31v7.74h5.31a1.19,1.19,0,0,1,1.1.65,3,3,0,0,1,0,2.92,1.2,1.2,0,0,1-1.1.66h-5.31v9.81a2.59,2.59,0,0,0,.56,1.89,2.82,2.82,0,0,0,2,.54h1.75a2.24,2.24,0,0,1,1.87.76,2.61,2.61,0,0,1,.61,1.67,2.66,2.66,0,0,1-.61,1.71,2.24,2.24,0,0,1-1.87.76Z" transform="translate(-18.83 -15.34)"/><path class="cls-1" d="M94.64,59.49h24.51c3.86,0,3.86-6,0-6H94.64c-3.86,0-3.86,6,0,6Z" transform="translate(-18.83 -15.34)"/></svg>